<?xml version="1.0" encoding="UTF-8" standalone="no"?><!DOCTYPE svg PUBLIC "-//W3C//DTD SVG 1.1//EN" "http://www.w3.org/Graphics/SVG/1.1/DTD/svg11.dtd"><svg width="100%" height="100%" viewBox="0 0 225 225" version="1.1" xmlns="http://www.w3.org/2000/svg" xmlns:xlink="http://www.w3.org/1999/xlink" xml:space="preserve" xmlns:serif="http://www.serif.com/" style="fill-rule:evenodd;clip-rule:evenodd;stroke-linejoin:round;stroke-miterlimit:2;"><path d="M1.99,92.099c0,0 2.534,-75.75 98.442,-91.41c34.419,-3.898 103.063,7.191 119.538,73.831c3.106,48.995 0.74,139.188 -127.741,146.492c-23.681,-0.182 -106.001,0.616 -90.239,-128.913Z" style="fill:#d6e5e5;"/><path d="M70.123,219.11c-0,0 14.448,-29.144 5.813,-34.428c-16.957,0.848 -17.59,2.786 -24.61,-2.344c-7.02,-5.13 -14.063,-14.063 -14.063,-14.063l-1.172,-19.923c-0,0 10.778,-3.623 12.891,7.032c2.113,10.654 8.203,15.235 8.203,15.235c0,-0 12.712,5.61 18.751,1.172c6.04,-4.439 15.117,-22.644 -2.344,-32.814c-14.613,-1.63 -16.407,-5.86 -16.407,-5.86c0,-0 -19.496,-6.476 -16.407,-30.47c3.09,-23.995 12.992,-19.337 14.064,-28.127c-3.966,-10.542 -8.234,-28.935 -1.172,-30.47c7.061,-1.535 13.207,-3.847 29.298,14.063c22.004,-5.085 46.265,-9.28 67.972,2.344c12.508,-9.839 18.25,-13.358 25.783,-8.203c2.713,2.307 -1.4,24.225 -0,26.954c1.399,2.729 34.501,59.142 -46.878,60.941c0.094,8.587 -2.13,11.589 1.172,15.235c3.303,3.646 21.846,32.406 16.407,56.252c-27.997,10.706 -31.922,14.859 -52.737,12.892c-20.815,-1.967 -24.564,-5.418 -24.564,-5.418Z" style="fill:#4b7bb2;"/></svg>