<?xml version="1.0" encoding="UTF-8" standalone="no"?><!DOCTYPE svg PUBLIC "-//W3C//DTD SVG 1.1//EN" "http://www.w3.org/Graphics/SVG/1.1/DTD/svg11.dtd"><svg width="100%" height="100%" viewBox="0 0 225 225" version="1.1" xmlns="http://www.w3.org/2000/svg" xmlns:xlink="http://www.w3.org/1999/xlink" xml:space="preserve" xmlns:serif="http://www.serif.com/" style="fill-rule:evenodd;clip-rule:evenodd;stroke-linejoin:round;stroke-miterlimit:2;"><g><path d="M8.664,26.786c3.253,-4.784 8.46,-15.516 13.275,-19.395c4.169,-3.357 10.285,-3.29 15.619,-3.879c5.857,-0.646 14.317,0 19.523,0l42.951,0c3.123,0 7.811,-0.129 11.714,0c3.904,0.13 7.801,0.686 11.713,0.776c5.597,0.13 14.578,0 21.866,0c7.289,0 17.181,0.388 21.866,0c2.217,-0.183 4.035,-2.102 6.248,-2.327c5.076,-0.517 16.659,-3.62 24.208,-0.776c7.549,2.845 17.678,9.319 21.085,17.843c3.514,8.792 -0.39,26.377 0,34.911c0.251,5.48 1.953,11.507 2.343,16.291c0.337,4.124 -0,8.275 -0,12.413l-0,29.48c-0,7.111 -0.26,22.11 -0,29.48c0.174,4.937 1.041,10.473 1.562,14.739c0.443,3.631 1.207,7.221 1.562,10.862c0.39,4.008 0.911,9.697 0.781,13.188c-0.099,2.635 -0.566,5.313 -1.562,7.758c-2.213,5.43 -7.94,20.17 -11.714,24.825c-2.378,2.932 -7.184,2.55 -10.933,3.103c-13.146,1.94 -51.02,7.241 -67.94,8.534c-11.164,0.853 -22.424,0.167 -33.58,-0.776c-12.235,-1.034 -26.812,-4.655 -39.827,-5.431c-12.735,-0.759 -30.196,1.552 -38.266,0.776c-3.825,-0.368 -7.831,-2.387 -10.152,-5.43c-3.253,-4.267 -7.939,-13.835 -9.371,-20.171c-1.312,-5.808 -0.13,-12.154 0.781,-17.843c0.893,-5.577 4.381,-10.652 4.686,-16.291c0.52,-9.633 -1.041,-30.773 -1.562,-41.505c-0.371,-7.637 -0.815,-15.276 -1.562,-22.886c-0.781,-7.952 -2.473,-17.455 -3.124,-24.825c-0.569,-6.445 -1.041,-13.705 -0.781,-19.395c0.228,-4.969 0.912,-10.731 2.343,-14.74c1.256,-3.514 4.146,-6.219 6.248,-9.309Z" style="fill:#ff9393;"/><path d="M25.277,43.167c2.734,-3.87 7.107,-12.551 11.152,-15.688c3.501,-2.716 8.639,-2.662 13.12,-3.138c4.919,-0.523 12.026,0 16.399,0l36.079,0c2.624,0 6.561,-0.104 9.839,0c3.28,0.105 6.554,0.555 9.84,0.628c4.701,0.104 12.245,-0 18.367,-0c6.123,-0 14.432,0.313 18.368,-0c1.861,-0.149 3.389,-1.701 5.247,-1.883c4.264,-0.418 13.995,-2.928 20.336,-0.627c6.341,2.301 14.849,7.537 17.711,14.433c2.952,7.112 -0.328,21.336 0,28.238c0.211,4.433 1.64,9.309 1.968,13.178c0.283,3.336 -0,6.694 -0,10.041l-0,23.846c-0,5.752 -0.219,17.884 -0,23.846c0.146,3.994 0.875,8.471 1.312,11.923c0.372,2.936 1.014,5.841 1.312,8.785c0.328,3.242 0.765,7.844 0.656,10.668c-0.083,2.132 -0.475,4.298 -1.312,6.275c-1.859,4.393 -6.669,16.316 -9.84,20.081c-1.997,2.372 -6.034,2.063 -9.183,2.51c-11.043,1.569 -42.858,5.857 -57.07,6.903c-9.377,0.69 -18.836,0.135 -28.207,-0.628c-10.277,-0.836 -22.522,-3.765 -33.455,-4.392c-10.697,-0.614 -25.365,1.255 -32.143,0.627c-3.213,-0.297 -6.578,-1.931 -8.528,-4.392c-2.733,-3.452 -6.669,-11.191 -7.871,-16.316c-1.103,-4.699 -0.11,-9.831 0.656,-14.433c0.75,-4.512 3.679,-8.616 3.935,-13.178c0.438,-7.792 -0.874,-24.892 -1.311,-33.573c-0.312,-6.177 -0.685,-12.356 -1.312,-18.512c-0.656,-6.432 -2.078,-14.119 -2.624,-20.081c-0.478,-5.213 -0.875,-11.086 -0.656,-15.688c0.191,-4.019 0.765,-8.681 1.968,-11.923c1.054,-2.843 3.482,-5.03 5.247,-7.53Z" style="fill:#fff;"/><path d="M112.5,62.25c13.27,1.696 26.442,8.967 31.875,11.414c9.272,4.176 14.569,16.881 16.912,27.695c1.002,4.626 1.463,6.455 1.463,11.141c0,8.922 -4.58,19.555 -8.665,26.821c-3.075,5.469 -4.893,8.056 -9.71,12.015c-8.676,7.131 -13.029,9.164 -25.125,9.164c-5.046,-0 -16.669,1.505 -21.265,0.118c-8.269,-2.494 -15.643,-7.064 -21.513,-13.103c-3.566,-3.668 -6.578,-10.879 -8.899,-15.496c-3.405,-6.775 -5.323,-11.425 -5.323,-19.519c0,-4.748 2.16,-9.343 3.393,-13.699c1.511,-5.337 1.609,-10.963 5.456,-14.773c4.838,-4.79 13.344,-11.9 18.177,-16.172c6.927,-6.124 13.381,-6.864 23.224,-5.606Z" style="fill:#ff9393;"/><path d="M109.5,79.125c7.594,0 20.57,7.161 26.048,11.601c7.213,5.846 8.458,11.782 8.827,21.774c0.979,26.534 -14.78,37.789 -34.125,33.375c-6.895,-1.573 -11.197,-0.956 -16.503,-4.689c-7.894,-5.554 -13.022,-18.166 -13.122,-28.686c-0.07,-7.372 0.844,-8.745 6.453,-18.674c4.539,-8.036 12.481,-14.701 22.422,-14.701Z" style="fill:#fff;"/><path d="M170.86,40.125c3.218,0 8.717,3.035 11.039,4.916c3.057,2.478 3.584,4.993 3.741,9.228c0.414,11.245 -6.264,16.014 -14.462,14.144c-2.922,-0.667 -4.745,-0.405 -6.994,-1.987c-3.345,-2.354 -5.519,-7.699 -5.561,-12.157c-0.03,-3.124 0.358,-3.706 2.735,-7.914c1.923,-3.405 5.289,-6.23 9.502,-6.23Z" style="fill:#ff9393;"/></g></svg>