<?xml version="1.0" encoding="UTF-8" standalone="no"?><!DOCTYPE svg PUBLIC "-//W3C//DTD SVG 1.1//EN" "http://www.w3.org/Graphics/SVG/1.1/DTD/svg11.dtd"><svg width="100%" height="100%" viewBox="0 0 225 225" version="1.1" xmlns="http://www.w3.org/2000/svg" xmlns:xlink="http://www.w3.org/1999/xlink" xml:space="preserve" xmlns:serif="http://www.serif.com/" style="fill-rule:evenodd;clip-rule:evenodd;stroke-linejoin:round;stroke-miterlimit:2;"><path d="M10.5,30c1.882,-5.293 5.782,-12.822 9,-14.25c3.218,-1.428 -2.379,-0.677 6.75,-2.25c9.129,-1.573 4.657,-1.216 14.25,-2.25c9.593,-1.034 7.587,0.087 18,-1.5c10.413,-1.587 11.768,-1.886 17.25,-2.25c5.482,-0.364 16.118,-0.109 21.75,-0.75c5.632,-0.641 0.602,-0.859 8.25,-0.75c7.648,0.109 22.131,-0.109 35.25,0c13.119,0.109 23.875,0.75 30,0.75c2.264,0 2.322,-0.175 6.75,-0.75c4.428,-0.575 3.55,-1.236 5.25,-0.75c2.625,0.75 5.739,2.455 10.5,5.25c4.761,2.795 7.131,2.965 11.25,7.5c4.119,4.535 3.221,1.962 6.75,9.75c3.529,7.788 3.892,8.867 5.25,15c1.358,6.133 2.457,4.521 2.25,12c-0.207,7.479 -0.135,8.993 0,12c0.135,3.007 -0.004,-0.223 0.75,12c0.754,12.223 0.404,9.063 0.75,18c0.346,8.937 0.338,9.902 0,15.75c-0.338,5.848 -0.135,3.518 -0.75,10.5c-0.615,6.982 -0.201,2.041 -0.75,10.5c-0.549,8.459 -0.951,2.96 -0.75,10.5c0.201,7.54 -0.054,5.001 0,7.5c0.125,5.75 -0.754,24.189 0.75,27c1.504,2.811 1.97,3.423 2.25,8.25c0.28,4.827 -7.875,13 -10.5,16.5c-1.383,1.844 -1.776,1.853 -5.25,4.5c-3.474,2.647 -7.125,4 -9.75,5.25c-1.929,0.918 1.572,1.628 -6,2.25c-7.572,0.622 2.392,0.536 -12,0.75c-14.392,0.214 -33.875,1.875 -46.5,2.25c-9.746,0.289 -25.934,-1.728 -29.25,0c-3.316,1.728 -47.75,-0.125 -61.5,-2.25c-7.734,-1.195 -15.87,-4.589 -21,-10.5c-5.75,-6.625 -11.5,-22.125 -13.5,-29.25c-1.224,-4.359 1.5,-8.972 1.5,-13.5c0,-5.75 -1.341,-13.984 -1.5,-21c-0.25,-11 -0.244,-30.002 0,-45c0.25,-15.375 0.75,-36.125 1.5,-47.25c0.442,-6.562 1,-13.875 3,-19.5Z" style="fill:#4b7bb2;"/><path d="M39.75,57c2.125,-4 8.625,-10.75 12.75,-12.75c3.606,-1.748 8.875,-0.625 12,0.75c3.079,1.355 5.25,4.625 6.75,7.5c1.5,2.875 2.75,6.5 2.25,9.75c-0.5,3.25 -1.948,8.099 -5.25,9.75c-3.75,1.875 -12.5,2.125 -17.25,1.5c-4.103,-0.54 -9.375,-2.5 -11.25,-5.25c-1.875,-2.75 -1.759,-7.938 0,-11.25Z" style="fill:#d6e5e5;"/><path d="M42.75,93.75l30.862,0.75l2.138,98.25l-29.25,-0.75c0,0 -1.331,-94.737 -3.75,-98.25Z" style="fill:#d6e5e5;"/><path d="M90.75,90.75l24.75,3c0,0 2.23,16.683 5.25,14.25c3.02,-2.433 29.318,-24.59 51.75,-8.25c8.854,9.551 15.08,27.042 13.5,59.25c-1.58,32.208 0.75,33.75 0.75,33.75l-18,0c0,0 -5.55,-2.913 -6,-8.25c-0.45,-5.337 7.221,-70.731 -19.5,-63c-11.172,3.788 -21.87,13.212 -25.5,21.75c2.283,41.607 -0.75,51.75 -0.75,51.75l-24,0c0,0 4.383,-98.93 -2.25,-104.25" style="fill:#d6e5e5;"/></svg>