<?xml version="1.0" encoding="UTF-8" standalone="no"?><!DOCTYPE svg PUBLIC "-//W3C//DTD SVG 1.1//EN" "http://www.w3.org/Graphics/SVG/1.1/DTD/svg11.dtd"><svg width="100%" height="100%" viewBox="0 0 225 225" version="1.1" xmlns="http://www.w3.org/2000/svg" xmlns:xlink="http://www.w3.org/1999/xlink" xml:space="preserve" xmlns:serif="http://www.serif.com/" style="fill-rule:evenodd;clip-rule:evenodd;stroke-linejoin:round;stroke-miterlimit:2;"><path d="M8.664,26.786c3.253,-4.784 8.46,-15.516 13.275,-19.395c4.169,-3.357 10.285,-3.29 15.619,-3.879c5.857,-0.646 14.317,0 19.523,0l42.951,0c3.123,0 7.811,-0.129 11.714,0c3.904,0.13 7.801,0.686 11.713,0.776c5.597,0.13 14.578,0 21.866,0c7.289,0 17.181,0.388 21.866,0c2.217,-0.183 4.035,-2.102 6.248,-2.327c5.076,-0.517 16.659,-3.62 24.208,-0.776c7.549,2.845 17.678,9.319 21.085,17.843c3.514,8.792 -0.39,26.377 0,34.911c0.251,5.48 1.953,11.507 2.343,16.291c0.337,4.124 -0,8.275 -0,12.413l-0,29.48c-0,7.111 -0.26,22.11 -0,29.48c0.174,4.937 1.041,10.473 1.562,14.739c0.443,3.631 1.207,7.221 1.562,10.862c0.39,4.008 0.911,9.697 0.781,13.188c-0.099,2.635 -0.566,5.313 -1.562,7.758c-2.213,5.43 -7.94,20.17 -11.714,24.825c-2.378,2.932 -7.184,2.55 -10.933,3.103c-13.146,1.94 -51.02,7.241 -67.94,8.534c-11.164,0.853 -22.424,0.167 -33.58,-0.776c-12.235,-1.034 -26.812,-4.655 -39.827,-5.431c-12.735,-0.759 -30.196,1.552 -38.266,0.776c-3.825,-0.368 -7.831,-2.387 -10.152,-5.43c-3.253,-4.267 -7.939,-13.835 -9.371,-20.171c-1.312,-5.808 -0.13,-12.154 0.781,-17.843c0.893,-5.577 4.381,-10.652 4.686,-16.291c0.52,-9.633 -1.041,-30.773 -1.562,-41.505c-0.371,-7.637 -0.815,-15.276 -1.562,-22.886c-0.781,-7.952 -2.473,-17.455 -3.124,-24.825c-0.569,-6.445 -1.041,-13.705 -0.781,-19.395c0.228,-4.969 0.912,-10.731 2.343,-14.74c1.256,-3.514 4.146,-6.219 6.248,-9.309Z" style="fill:#d6e5e5;"/><path d="M47.624,54.756c4.652,25.183 58.067,37.107 65.282,33c-0,0 8.86,-54.435 51.718,-22.5l13.5,-6.75l-7.5,12.75l12,-3c0,0 0.453,6.573 -12.75,12.75c3.875,9.714 -18.481,126.277 -127.5,77.25c27.587,-7.088 44.25,-11.25 44.25,-11.25c0,0 -26.684,-1.994 -40.5,-22.5c20.948,-1.463 21.75,-0.75 21.75,-0.75c0,0 -22.823,-7.425 -25.5,-30.75c8.249,4.342 15.042,6.073 15.75,4.5c0,0 -18.622,-10.19 -10.5,-42.75Z" style="fill:#4b7bb2;"/></svg>