<svg width="18" height="18" viewBox="0 0 18 18" fill="none" xmlns="http://www.w3.org/2000/svg">
<path d="M2 6.35138H2.31623C3.14466 6.35138 3.81623 7.02295 3.81623 7.85138V9.19503V10.5387C3.81623 11.3671 3.14466 12.0387 2.31623 12.0387H2C1.17157 12.0387 0.5 11.3671 0.5 10.5387V7.85138C0.5 7.02295 1.17157 6.35138 2 6.35138Z" stroke="#1E2228"/>
<rect x="15.2664" y="5.82349" width="1.09344" height="5.82353" fill="#1E2228"/>
<rect x="16.9066" y="3.17645" width="1.09344" height="11.1176" fill="#1E2228"/>
<path d="M4.71222 6.38354C4.71222 5.70437 5.05689 5.07161 5.62749 4.70325L9.82833 1.99137C11.1592 1.13224 12.9131 2.08761 12.9131 3.67166V14.3283C12.9131 15.9124 11.1592 16.8678 9.82833 16.0086L5.62749 13.2967C5.05689 12.9284 4.71222 12.2956 4.71222 11.6165V6.38354Z" fill="#1E2228"/>
</svg>
