<svg width="18" height="18" viewBox="0 0 18 18" fill="none" xmlns="http://www.w3.org/2000/svg">
<path d="M2 6.35178H2.31623C3.14466 6.35178 3.81623 7.02335 3.81623 7.85178V9.19543V10.5391C3.81623 11.3675 3.14466 12.0391 2.31623 12.0391H2C1.17157 12.0391 0.5 11.3675 0.5 10.5391V7.85178C0.5 7.02335 1.17157 6.35178 2 6.35178Z" stroke="#F24D4D"/>
<path d="M4.71222 6.38394C4.71222 5.70477 5.05689 5.07201 5.62749 4.70365L9.82833 1.99177C11.1592 1.13264 12.9131 2.088 12.9131 3.67206V14.3287C12.9131 15.9128 11.1592 16.8682 9.82833 16.009L5.62749 13.2971C5.05689 12.9288 4.71222 12.296 4.71222 11.6169V6.38394Z" fill="#F24D4D"/>
<rect x="14" y="10.3899" width="4.56368" height="0.667255" rx="0.333628" transform="rotate(-45 14 10.3899)" fill="#F24D4D"/>
<rect x="14.4714" y="7.16449" width="4.56272" height="0.66233" rx="0.331165" transform="rotate(45 14.4714 7.16449)" fill="#F24D4D"/>
</svg>
