<svg width="27" height="26" viewBox="0 0 27 26" fill="none" xmlns="http://www.w3.org/2000/svg">
<rect width="23.2759" height="26" fill="#9F9FED"/>
<rect x="1.86208" y="2.73684" width="23.2759" height="23.2632" fill="#EDE19F"/>
<rect x="3.72414" y="5.47369" width="23.2759" height="20.5263" fill="#ED9FAD"/>
<path d="M8.6889 15.587C8.69339 15.0666 8.59161 13.9358 8.86614 13.5099C9.0567 13.2142 9.42777 14.6551 9.47248 14.8055C9.5413 15.037 9.63885 15.5821 9.87826 15.5527C10.0874 15.5271 10.3301 15.2475 10.4986 15.1071C10.9457 14.7348 11.3945 14.3772 11.8652 14.072C12.0339 13.9626 13.965 12.6859 14.062 13.078C14.2606 13.8806 14.2518 13.8523 14.9389 13.8595C15.6415 13.8668 16.3444 13.8595 17.0471 13.8595C17.4057 13.8595 17.9013 13.7387 18.2411 13.9692C18.5488 14.1779 18.6623 14.6812 18.936 14.9495C19.3035 15.3095 19.7906 15.2185 20.1953 15.0797C20.9301 14.8277 21.6952 14.3531 22.4575 14.3531C22.9065 14.3531 23.3618 14.2353 23.8007 14.1063" stroke="black" stroke-opacity="0.3" stroke-linecap="round" stroke-linejoin="round"/>
<path d="M8.35306 23.4511C8.73317 23.0867 9.29579 21.9025 9.78029 21.9703C10.4502 22.0641 10.6607 23.6927 11.4081 23.8692C12.7147 24.1779 14.0509 23.9998 15.0694 22.7381C15.4357 22.2844 16.112 22.1465 16.5713 22.4091C16.9552 22.6285 17.247 22.7107 17.6813 22.7107C18.864 22.7107 19.983 21.8416 21.1515 21.9977C21.5579 22.052 21.6031 22.7107 21.9117 22.7107C22.2487 22.7107 22.5379 22.115 22.7933 21.8469" stroke="black" stroke-opacity="0.3" stroke-linecap="round" stroke-linejoin="round"/>
</svg>
