<svg width="40" height="40" viewBox="0 0 40 40" fill="none" xmlns="http://www.w3.org/2000/svg">
<path d="M39 5.85714V37.2557H26.0167L19.8392 39L13.9833 37.2557H1V5.85714H4.48333V1H16.5167L19.8392 5.85714L23.1667 1H36.15V5.85714H39Z" fill="#64707B"/>
<path d="M19.8392 39V5.85714M19.8392 39L23.1667 34.5701H36.15V5.85714M19.8392 39L16.5167 34.5701H4.48333V5.85714M19.8392 39L26.0167 37.2557H39V5.85714H36.15M19.8392 39L13.9833 37.2557H1V5.85714H4.48333M36.15 5.85714V1H23.1667L19.8392 5.85714M19.8392 5.85714L16.5167 1H4.48333V5.85714" stroke="#2D333B"/>
<path d="M6.66895 7.22462C7.84214 6.31651 8.94821 5.54513 10.4517 5.49684C11.5306 5.46218 11.7517 6.4408 12.2717 7.25212C12.7532 8.00331 13.8021 7.73945 14.5414 7.71042C15.4473 7.67485 16.3499 7.38961 17.252 7.38961" stroke="#2D333B" stroke-linecap="round" stroke-linejoin="round"/>
<path d="M22.5334 7.42853C23.7066 6.52042 24.8126 5.74904 26.3161 5.70074C27.395 5.66608 27.6161 6.64471 28.1362 7.45602C28.6176 8.20721 29.6665 7.94335 30.4058 7.91432C31.3117 7.87875 32.2144 7.59351 33.1164 7.59351" stroke="#2D333B" stroke-linecap="round" stroke-linejoin="round"/>
<path d="M7.44705 14.154C8.25159 13.6132 10.2165 12.9799 11.0439 13.6957C11.5332 14.119 12.1484 15.144 12.851 15.144C13.9283 15.144 14.8685 14.5018 15.8166 14.0257C16.1636 13.8515 16.566 13.9066 16.9407 13.9066" stroke="#2D333B" stroke-linecap="round" stroke-linejoin="round"/>
<path d="M23.1666 14.5349C23.9712 13.9941 25.9361 13.3608 26.7635 14.0766C27.2528 14.4999 27.868 15.5249 28.5706 15.5249C29.6479 15.5249 30.5881 14.8827 31.5362 14.4066C31.8832 14.2324 32.2856 14.2875 32.6603 14.2875" stroke="#2D333B" stroke-linecap="round" stroke-linejoin="round"/>
<path d="M7.44705 21.7436C8.26388 21.4942 9.07083 21.2323 9.87233 20.9324C10.2585 20.788 10.6402 20.6712 11.0525 20.6712C11.7557 20.6712 12.2858 21.3532 12.8553 21.6886C13.423 22.023 14.4505 22.1404 15.0774 22.0186C15.8211 21.8741 16.6459 21.4006 17.2519 20.9187" stroke="#2D333B" stroke-linecap="round" stroke-linejoin="round"/>
<path d="M23.1666 21.5431C23.9835 21.2937 24.7904 21.0318 25.5919 20.7319C25.9781 20.5874 26.3598 20.4707 26.7721 20.4707C27.4753 20.4707 28.0054 21.1527 28.5749 21.4881C29.1426 21.8224 30.1701 21.9399 30.797 21.8181C31.5407 21.6735 32.3655 21.2 32.9715 20.7181" stroke="#2D333B" stroke-linecap="round" stroke-linejoin="round"/>
<path d="M7.68056 28.3431C8.55304 27.8807 9.49637 27.1292 10.5252 27.4082C10.9861 27.5332 11.3759 27.8712 11.8005 28.0865C12.2986 28.339 12.7857 28.3431 13.3266 28.3431C13.9691 28.3431 14.4447 28.3937 14.965 27.9719C15.2913 27.7074 15.8589 27.2893 16.2404 27.1882" stroke="#2D333B" stroke-linecap="round" stroke-linejoin="round"/>
<path d="M23.1666 28.3397C24.0391 27.8772 24.9825 27.1257 26.0113 27.4048C26.4722 27.5298 26.862 27.8677 27.2866 28.083C27.7847 28.3356 28.2718 28.3397 28.8127 28.3397C29.4551 28.3397 29.9308 28.3903 30.4511 27.9685C30.7774 27.704 31.345 27.2859 31.7265 27.1848" stroke="#2D333B" stroke-linecap="round" stroke-linejoin="round"/>
</svg>
