<svg width="105" height="128" viewBox="0 0 105 128" fill="none" xmlns="http://www.w3.org/2000/svg">
<path d="M0.516296 8.34447C5.93387 4.92624 12.1728 2.12007 18.4455 0.680434C23.4684 -0.472353 25.4261 6.58433 29.2448 8.78573C32.4992 10.6618 36.4711 10.7098 40.1138 10.8063C45.6619 10.9532 51.2886 10.9221 56.6728 9.41279C59.345 8.66367 61.8874 7.53384 64.4297 6.44007C65.1609 6.1255 65.9948 5.6881 66.8218 5.88269C69.533 6.52061 71.2519 9.41846 74.0678 10.156C78.0756 11.2056 81.2878 9.008 84.96 8.01933C88.7288 7.00467 92.3926 7.09035 96.2471 7.09035" stroke="black" stroke-opacity="0.5" stroke-linecap="round" stroke-linejoin="round"/>
<path d="M2.60651 34.6809C9.45277 32.3988 16.4809 27.0128 23.9961 30.6631C26.7452 31.9984 29.0341 33.865 32.0085 34.7738C37.9986 36.6041 44.8264 36.4615 51.0061 36.1673C56.1159 35.9239 62.4813 35.1962 66.9844 32.3817C69.3595 30.8973 71.374 33.4268 73.5337 33.4268C77.9698 33.4268 81.6593 31.4789 85.8426 30.338C88.7121 29.5554 91.7212 29.7796 94.5749 28.8284" stroke="black" stroke-opacity="0.5" stroke-linecap="round" stroke-linejoin="round"/>
<path d="M0.516296 56.8369C6.14123 54.0765 12.2609 50.9982 18.6313 50.5663C21.6281 50.3632 23.8123 54.3434 25.8773 56.0008C32.1875 61.0656 40.0092 61.0321 47.7546 60.4135C56.81 59.6902 65.0884 55.3184 74.1375 54.7699C75.8102 54.6686 76.7587 55.0935 78.0624 56.2563C80.592 58.5124 82.7997 59.2174 86.1909 58.1142C90.4416 56.7315 93.8958 52.9261 98.4534 52.6797C99.8116 52.6063 100.68 52.8225 101.682 51.8204" stroke="black" stroke-opacity="0.5" stroke-linecap="round" stroke-linejoin="round"/>
<path d="M3.44257 85.6816C12.2688 84.0306 21.2746 80.8139 30.2435 80.2703C31.5871 80.1889 32.8144 80.3369 33.9594 81.1296C38.2488 84.0992 44.4808 82.4328 49.3107 81.687C53.6229 81.0211 57.9765 79.8682 62.3163 79.4342C68.577 78.8082 75.0604 80.9633 81.2906 81.4083C85.7615 81.7276 89.9971 80.2369 94.4356 79.9219C95.8194 79.8237 97.5572 79.4483 98.7553 80.2471" stroke="black" stroke-opacity="0.5" stroke-linecap="round" stroke-linejoin="round"/>
<path d="M79.1075 125.813C82.4862 125.764 85.8281 124.375 89.1405 124.582C91.1562 124.708 92.7786 126.204 94.7143 126.231C97.394 126.269 101.424 127.222 103.772 125.813" stroke="black" stroke-opacity="0.5" stroke-linecap="round" stroke-linejoin="round"/>
</svg>
