<svg width="105" height="41" viewBox="0 0 105 41" fill="none" xmlns="http://www.w3.org/2000/svg">
<path d="M0.516357 8.34447C5.93393 4.92624 12.1729 2.12007 18.4456 0.680434C23.4684 -0.472353 25.4261 6.58433 29.2449 8.78573C32.4992 10.6618 36.4712 10.7098 40.1139 10.8063C45.6619 10.9532 51.2887 10.9221 56.6728 9.41279C59.3451 8.66367 61.8875 7.53384 64.4298 6.44007C65.1609 6.1255 65.9949 5.6881 66.8219 5.88269C69.533 6.52061 71.2519 9.41846 74.0679 10.156C78.0756 11.2056 81.2879 9.008 84.9601 8.01933C88.7288 7.00467 92.3927 7.09035 96.2471 7.09035" stroke="black" stroke-opacity="0.5" stroke-linecap="round" stroke-linejoin="round"/>
<path d="M2.60645 34.6809C9.45271 32.3988 16.4808 27.0128 23.9961 30.6631C26.7452 31.9984 29.0341 33.865 32.0085 34.7738C37.9986 36.6041 44.8263 36.4615 51.006 36.1673C56.1159 35.9239 62.4812 35.1962 66.9843 32.3817C69.3594 30.8973 71.374 33.4268 73.5336 33.4268C77.9697 33.4268 81.6592 31.4789 85.8425 30.338C88.712 29.5554 91.7212 29.7796 94.5749 28.8284" stroke="black" stroke-opacity="0.5" stroke-linecap="round" stroke-linejoin="round"/>
</svg>
